<svg xmlns="http://www.w3.org/2000/svg" xmlns:xlink="http://www.w3.org/1999/xlink" 	 viewBox="0 0 379.1 318.6"><g fill="#E52421"><path d="M0,124.8c0,0,26-43,84-35.5c85.6,11,0.6,138.8,12.7,187.3c4.2,16.9,50.8,7.6,50.8,7.6S84,352.9,29.8,296.1 c-29.4-30.8,25.4-98.3,17.8-169.5C46,112.2,0,124.8,0,124.8z"/><path d="M202.9,138.9c-24.5,21.6-65.1,24.4-73.2,5l0,0l0,0c-8.1-19.3,22.5-46.3,55.1-48.5l0,0l73.2-5L202.9,138.9 L202.9,138.9z"/></g><g fill="#202020"><path d="M356.6,13.1h-188c-12.4,0-22.5,10.1-22.5,22.5v69.5c5.3-3.6,11.2-6.7,17.4-9V35.6c0-2.8,2.3-5.1,5.1-5.1h173.2 v150.2H230.6c3.7,4.4,5.8,10.3,5.8,17.2c0,0.1,0,0.1,0,0.2h120.1c12.4,0,22.5-10.1,22.5-22.5v-140C379.1,23.3,369,13.1,356.6,13.1z M360.8,114.9c-5.1,0-9.3-4.1-9.3-9.3s4.1-9.3,9.3-9.3s9.3,4.1,9.3,9.3S365.9,114.9,360.8,114.9z"/></g><g fill="#1D1E3F"><path d="M124.3,188.8c0-4.3-0.1-7.7-0.3-11.1h6.6l0.4,6.8h0.2c2-3.9,6.8-7.7,13.6-7.7c5.7,0,14.5,3.4,14.5,17.5v24.6	h-7.5v-23.7c0-6.6-2.5-12.2-9.5-12.2c-4.9,0-8.8,3.5-10,7.7c-0.3,0.9-0.5,2.2-0.5,3.5v24.7h-7.5V188.8z"/><path d="M172.2,218.8v-35.4h-5.8v-5.7h5.8v-2c0-5.8,1.3-11.1,4.8-14.4c2.8-2.7,6.5-3.8,10-3.8c2.6,0,4.9,0.6,6.4,1.2	l-1,5.8c-1.1-0.5-2.6-0.9-4.8-0.9c-6.4,0-8,5.6-8,11.9v2.2h9.9v5.7h-9.9v35.4H172.2z"/><path d="M232.4,197.9c0,15.2-10.5,21.8-20.5,21.8c-11.1,0-19.7-8.2-19.7-21.2c0-13.8,9-21.8,20.4-21.8	C224.4,176.8,232.4,185.4,232.4,197.9z M199.8,198.4c0,9,5.2,15.8,12.5,15.8c7.1,0,12.5-6.7,12.5-16c0-7-3.5-15.8-12.3-15.8	C203.6,182.4,199.8,190.5,199.8,198.4z"/><path d="M124.3,239.6c0-5.3-0.2-9.5-0.3-13.4h6.7l0.3,7.1h0.2c3.1-5,7.9-8,14.6-8c9.9,0,17.4,8.4,17.4,20.9 c0,14.8-9,22.1-18.7,22.1c-5.4,0-10.2-2.4-12.7-6.5h-0.2v22.4h-7.4V239.6z M131.7,250.6c0,1.1,0.2,2.1,0.3,3.1	c1.4,5.2,5.9,8.8,11.2,8.8c7.9,0,12.5-6.5,12.5-15.9c0-8.2-4.3-15.3-12.2-15.3c-5.1,0-9.9,3.7-11.3,9.3c-0.3,0.9-0.5,2-0.5,3.1 V250.6z"/><path d="M172.7,239c0-4.8-0.1-9-0.3-12.8h6.5l0.3,8.1h0.3c1.9-5.5,6.4-9,11.4-9c0.9,0,1.4,0.1,2.1,0.3v7.1 c-0.8-0.2-1.5-0.3-2.6-0.3c-5.3,0-9,4-10,9.6c-0.2,1-0.3,2.2-0.3,3.5v21.9h-7.4V239z"/><path d="M203.8,248.1c0.2,10.1,6.6,14.3,14.1,14.3c5.4,0,8.6-0.9,11.4-2.1l1.3,5.4c-2.6,1.2-7.1,2.5-13.7,2.5 c-12.7,0-20.2-8.3-20.2-20.7s7.3-22.2,19.3-22.2c13.4,0,17,11.8,17,19.4c0,1.5-0.2,2.7-0.3,3.5H203.8z M225.7,242.8 c0.1-4.8-2-12.2-10.4-12.2c-7.6,0-10.9,7-11.5,12.2H225.7z"/><path d="M242.2,239.6c0-5.3-0.2-9.5-0.3-13.4h6.7l0.3,7.1h0.2c3.1-5,7.9-8,14.6-8c9.9,0,17.4,8.4,17.4,20.9	c0,14.8-9,22.1-18.7,22.1c-5.4,0-10.2-2.4-12.7-6.5h-0.2v22.4h-7.4V239.6z M249.6,250.6c0,1.1,0.2,2.1,0.3,3.1 c1.4,5.2,5.9,8.8,11.2,8.8c7.9,0,12.5-6.5,12.5-15.9c0-8.2-4.3-15.3-12.2-15.3c-5.1,0-9.9,3.7-11.3,9.3c-0.3,0.9-0.5,2-0.5,3.1 V250.6z"/><path d="M327.8,246.4c0,15.2-10.5,21.8-20.5,21.8c-11.1,0-19.7-8.2-19.7-21.2c0-13.8,9-21.8,20.4-21.8	C319.8,225.3,327.8,233.9,327.8,246.4z M295.2,246.9c0,9,5.2,15.8,12.5,15.8c7.1,0,12.5-6.7,12.5-16c0-7-3.5-15.8-12.3-15.8 S295.2,239,295.2,246.9z"/><path d="M372.8,207v49.7c0,3.7,0.1,7.8,0.3,10.6h-6.7l-0.3-7.1h-0.2c-2.3,4.6-7.3,8.1-14,8.1 c-9.9,0-17.6-8.4-17.6-20.9c-0.1-13.7,8.4-22.1,18.4-22.1c6.3,0,10.5,3,12.4,6.3h0.2V207H372.8z M365.3,243c0-0.9-0.1-2.2-0.3-3.1 c-1.1-4.8-5.2-8.7-10.8-8.7c-7.7,0-12.3,6.8-12.3,15.9c0,8.3,4.1,15.2,12.2,15.2c5,0,9.6-3.3,11-8.9c0.3-1,0.3-2,0.3-3.2V243z"/></g><circle fill="#E52421" cx="60" cy="37.5" r="37.5"/></svg>