<svg xmlns="http://www.w3.org/2000/svg" xmlns:xlink="http://www.w3.org/1999/xlink" viewBox="0 0 250 250"><g fill="#1C1F3E"><path d="M61.1,188.8v-17.1c6.7,4.3,14.6,6.5,23.5,6.5c5.6,0,10-1.1,13.2-3.2c3.2-2.1,4.7-5.1,4.7-9c0-4-1.9-7-5.8-9.2 c-3.9-2.1-9.3-3.2-16.1-3.2h-9v-15h8.3c13.1,0,19.6-3.8,19.6-11.5c0-7.2-5-10.9-15.1-10.9c-6.7,0-13.3,1.9-19.6,5.8v-16 c7-3.1,15.3-4.7,24.6-4.7c10.3,0,18.3,2,24,6.1c5.7,4.1,8.6,9.4,8.6,15.9c0,11.6-6.7,18.9-20,21.8v0.3c7.1,0.8,12.7,3.1,16.8,6.9 c4.1,3.8,6.2,8.4,6.2,13.9c0,8.3-3.4,14.9-10.3,19.7s-16.3,7.3-28.4,7.3C76,193.3,67.5,191.8,61.1,188.8z"/><path d="M198.8,179.6v-3.3h-20.7v-74.9l-43.4,7.8V125l21.4-4.1v55.4h-20.8v15.5h43.6 C183.1,185.4,190.3,180.9,198.8,179.6z"/><path d="M221.5,36.3H212c0.3-1.8,0.5-3.6,0.5-5.5c0-14.6-9.6-26.5-21.5-26.5s-21.5,11.9-21.5,26.5 c0,1.9,0.2,3.7,0.5,5.5H79.9c0.3-1.8,0.5-3.6,0.5-5.5c0-14.6-9.6-26.5-21.5-26.5S37.5,16.1,37.5,30.8c0,1.9,0.2,3.7,0.5,5.5h-9.5 C12.7,36.3,0,47.5,0,61.5v159.1c0,13.9,12.7,25.2,28.5,25.2h152.2h17.4v-18v-25.5h34.4H250v-18V61.5	C250,47.5,237.3,36.3,221.5,36.3z M191.1,6.8c10.3,0,18.6,10.7,18.6,24s-8.3,24-18.6,24s-18.6-10.7-18.6-24S180.8,6.8,191.1,6.8z M58.9,6.8c10.3,0,18.6,10.7,18.6,24s-8.3,24-18.6,24S40.3,44,40.3,30.8S48.7,6.8,58.9,6.8z M232.6,184.3h-23.4	c-15.7,0-28.5,11.3-28.5,25.2v18.3H17.4v-157h215.1V184.3z"/></g></svg>